name rise30.2954peak35.7071fall66.7804.mot
datacolumns 19
datarows 30
range 22.11325000000000 22.16159100000000
endheader
time	ground_force1_vx	ground_force1_vy	ground_force1_vz	ground_force1_px	ground_force1_py	ground_force1_pz	ground_force2_vx	ground_force2_vy	ground_force2_vz	ground_force2_px	ground_force2_py	ground_force2_pz	ground_torque1_x	ground_torque1_y	ground_torque1_z	ground_torque2_x	ground_torque2_y	ground_torque2_z	
22.11325000000000	13.38153100000000	708.86802100000000	42.26500000000000	0.17979700000000	0.00000000000000	0.12344800000000	0.00000000000000	0.00000000000000	0.00000000000000	0.00000000000000	0.00000000000000	0.00000000000000	0.00000000000000	12.27755600000000	0.00000000000000	0.00000000000000	0.00000000000000	0.00000000000000	
22.11491600000000	13.07575100000000	709.88639100000000	42.32720200000000	0.17883700000000	0.00000000000000	0.12343200000000	0.00000000000000	0.00000000000000	0.00000000000000	0.00000000000000	0.00000000000000	0.00000000000000	0.00000000000000	12.33042600000000	0.00000000000000	0.00000000000000	0.00000000000000	0.00000000000000	
22.11658700000000	12.75665300000000	710.92394200000001	42.39456200000000	0.17784600000000	0.00000000000000	0.12341700000000	0.00000000000000	0.00000000000000	0.00000000000000	0.00000000000000	0.00000000000000	0.00000000000000	0.00000000000000	12.38742400000000	0.00000000000000	0.00000000000000	0.00000000000000	0.00000000000000	
22.11824900000000	12.42392100000000	711.97933399999999	42.46677000000000	0.17682700000000	0.00000000000000	0.12340200000000	0.00000000000000	0.00000000000000	0.00000000000000	0.00000000000000	0.00000000000000	0.00000000000000	0.00000000000000	12.44852200000000	0.00000000000000	0.00000000000000	0.00000000000000	0.00000000000000	
22.11991800000000	12.07728900000000	713.05133300000000	42.54351300000000	0.17577900000000	0.00000000000000	0.12338900000000	0.00000000000000	0.00000000000000	0.00000000000000	0.00000000000000	0.00000000000000	0.00000000000000	0.00000000000000	12.51368300000000	0.00000000000000	0.00000000000000	0.00000000000000	0.00000000000000	
22.12158300000000	11.71654800000000	714.13880700000004	42.62447900000000	0.17470500000000	0.00000000000000	0.12337600000000	0.00000000000000	0.00000000000000	0.00000000000000	0.00000000000000	0.00000000000000	0.00000000000000	0.00000000000000	12.58286600000000	0.00000000000000	0.00000000000000	0.00000000000000	0.00000000000000	
22.12324900000000	11.34153800000000	715.24073099999998	42.70935700000000	0.17360500000000	0.00000000000000	0.12336400000000	0.00000000000000	0.00000000000000	0.00000000000000	0.00000000000000	0.00000000000000	0.00000000000000	0.00000000000000	12.65602100000000	0.00000000000000	0.00000000000000	0.00000000000000	0.00000000000000	
22.12491500000000	10.95215500000000	716.35618399999998	42.79783500000000	0.17248000000000	0.00000000000000	0.12335200000000	0.00000000000000	0.00000000000000	0.00000000000000	0.00000000000000	0.00000000000000	0.00000000000000	0.00000000000000	12.73309500000000	0.00000000000000	0.00000000000000	0.00000000000000	0.00000000000000	
22.12658600000000	10.54834600000000	717.48435300000006	42.88960700000000	0.17133300000000	0.00000000000000	0.12334100000000	0.00000000000000	0.00000000000000	0.00000000000000	0.00000000000000	0.00000000000000	0.00000000000000	0.00000000000000	12.81402700000000	0.00000000000000	0.00000000000000	0.00000000000000	0.00000000000000	
22.12825200000000	10.13010900000000	718.62452900000005	42.98437000000000	0.17016600000000	0.00000000000000	0.12333000000000	0.00000000000000	0.00000000000000	0.00000000000000	0.00000000000000	0.00000000000000	0.00000000000000	0.00000000000000	12.89875000000000	0.00000000000000	0.00000000000000	0.00000000000000	0.00000000000000	
22.12993100000000	9.69749200000000	719.77611000000002	43.08182400000000	0.16897900000000	0.00000000000000	0.12332000000000	0.00000000000000	0.00000000000000	0.00000000000000	0.00000000000000	0.00000000000000	0.00000000000000	0.00000000000000	12.98719400000000	0.00000000000000	0.00000000000000	0.00000000000000	0.00000000000000	
22.13158500000000	9.25059100000000	720.93859399999997	43.18167800000000	0.16777500000000	0.00000000000000	0.12330900000000	0.00000000000000	0.00000000000000	0.00000000000000	0.00000000000000	0.00000000000000	0.00000000000000	0.00000000000000	13.07927900000000	0.00000000000000	0.00000000000000	0.00000000000000	0.00000000000000	
22.13326000000000	8.78955100000000	722.11158000000000	43.28364700000000	0.16655600000000	0.00000000000000	0.12329800000000	0.00000000000000	0.00000000000000	0.00000000000000	0.00000000000000	0.00000000000000	0.00000000000000	0.00000000000000	13.17492400000000	0.00000000000000	0.00000000000000	0.00000000000000	0.00000000000000	
22.13492200000000	8.31455900000000	723.29476299999999	43.38745400000000	0.16532300000000	0.00000000000000	0.12328700000000	0.00000000000000	0.00000000000000	0.00000000000000	0.00000000000000	0.00000000000000	0.00000000000000	0.00000000000000	13.27403900000000	0.00000000000000	0.00000000000000	0.00000000000000	0.00000000000000	
22.13660800000000	7.82584700000000	724.48793300000000	43.49283200000000	0.16407900000000	0.00000000000000	0.12327600000000	0.00000000000000	0.00000000000000	0.00000000000000	0.00000000000000	0.00000000000000	0.00000000000000	0.00000000000000	13.37653000000000	0.00000000000000	0.00000000000000	0.00000000000000	0.00000000000000	
22.13825600000000	7.32369000000000	725.69096700000000	43.59952300000000	0.16282600000000	0.00000000000000	0.12326400000000	0.00000000000000	0.00000000000000	0.00000000000000	0.00000000000000	0.00000000000000	0.00000000000000	0.00000000000000	13.48229900000000	0.00000000000000	0.00000000000000	0.00000000000000	0.00000000000000	
22.13992000000000	6.80840000000000	726.90382699999998	43.70728200000000	0.16156500000000	0.00000000000000	0.12325200000000	0.00000000000000	0.00000000000000	0.00000000000000	0.00000000000000	0.00000000000000	0.00000000000000	0.00000000000000	13.59124100000000	0.00000000000000	0.00000000000000	0.00000000000000	0.00000000000000	
22.14158500000000	6.28032800000000	728.12655400000006	43.81587500000000	0.16030000000000	0.00000000000000	0.12324000000000	0.00000000000000	0.00000000000000	0.00000000000000	0.00000000000000	0.00000000000000	0.00000000000000	0.00000000000000	13.70324700000000	0.00000000000000	0.00000000000000	0.00000000000000	0.00000000000000	
22.14325400000000	5.73985900000000	729.35925999999995	43.92508100000000	0.15903100000000	0.00000000000000	0.12322600000000	0.00000000000000	0.00000000000000	0.00000000000000	0.00000000000000	0.00000000000000	0.00000000000000	0.00000000000000	13.81820300000000	0.00000000000000	0.00000000000000	0.00000000000000	0.00000000000000	
22.14492200000000	5.18741100000000	730.60212500000000	44.03469300000000	0.15776100000000	0.00000000000000	0.12321200000000	0.00000000000000	0.00000000000000	0.00000000000000	0.00000000000000	0.00000000000000	0.00000000000000	0.00000000000000	13.93599000000000	0.00000000000000	0.00000000000000	0.00000000000000	0.00000000000000	
22.14658400000000	4.62343500000000	731.85538899999995	44.14452000000000	0.15649200000000	0.00000000000000	0.12319600000000	0.00000000000000	0.00000000000000	0.00000000000000	0.00000000000000	0.00000000000000	0.00000000000000	0.00000000000000	14.05648600000000	0.00000000000000	0.00000000000000	0.00000000000000	0.00000000000000	
22.14825700000000	4.04840500000000	733.11934199999996	44.25438400000000	0.15522500000000	0.00000000000000	0.12318000000000	0.00000000000000	0.00000000000000	0.00000000000000	0.00000000000000	0.00000000000000	0.00000000000000	0.00000000000000	14.17956200000000	0.00000000000000	0.00000000000000	0.00000000000000	0.00000000000000	
22.14992600000000	3.46282700000000	734.39432199999999	44.36412400000000	0.15396300000000	0.00000000000000	0.12316300000000	0.00000000000000	0.00000000000000	0.00000000000000	0.00000000000000	0.00000000000000	0.00000000000000	0.00000000000000	14.30508600000000	0.00000000000000	0.00000000000000	0.00000000000000	0.00000000000000	
22.15158500000000	2.86722500000000	735.68070200000000	44.47359700000000	0.15270700000000	0.00000000000000	0.12314500000000	0.00000000000000	0.00000000000000	0.00000000000000	0.00000000000000	0.00000000000000	0.00000000000000	0.00000000000000	14.43292200000000	0.00000000000000	0.00000000000000	0.00000000000000	0.00000000000000	
22.15325100000000	2.26214700000000	736.97888399999999	44.58267500000000	0.15145900000000	0.00000000000000	0.12312500000000	0.00000000000000	0.00000000000000	0.00000000000000	0.00000000000000	0.00000000000000	0.00000000000000	0.00000000000000	14.56292800000000	0.00000000000000	0.00000000000000	0.00000000000000	0.00000000000000	
22.15492400000000	1.64816000000000	738.28929100000005	44.69125000000000	0.15022100000000	0.00000000000000	0.12310400000000	0.00000000000000	0.00000000000000	0.00000000000000	0.00000000000000	0.00000000000000	0.00000000000000	0.00000000000000	14.69495900000000	0.00000000000000	0.00000000000000	0.00000000000000	0.00000000000000	
22.15659000000000	1.02584600000000	739.61235799999997	44.79923000000000	0.14899300000000	0.00000000000000	0.12308200000000	0.00000000000000	0.00000000000000	0.00000000000000	0.00000000000000	0.00000000000000	0.00000000000000	0.00000000000000	14.82886800000000	0.00000000000000	0.00000000000000	0.00000000000000	0.00000000000000	
22.15825000000000	0.39580300000000	740.94852200000003	44.90654300000000	0.14777700000000	0.00000000000000	0.12305900000000	0.00000000000000	0.00000000000000	0.00000000000000	0.00000000000000	0.00000000000000	0.00000000000000	0.00000000000000	14.96450000000000	0.00000000000000	0.00000000000000	0.00000000000000	0.00000000000000	
22.15992300000000	-0.24136100000000	742.29821500000003	45.01313500000000	0.14657500000000	0.00000000000000	0.12303400000000	0.00000000000000	0.00000000000000	0.00000000000000	0.00000000000000	0.00000000000000	0.00000000000000	0.00000000000000	15.10169900000000	0.00000000000000	0.00000000000000	0.00000000000000	0.00000000000000	
22.16159100000000	-0.88502600000000	743.66185499999995	45.11897000000000	0.14538700000000	0.00000000000000	0.12300800000000	0.00000000000000	0.00000000000000	0.00000000000000	0.00000000000000	0.00000000000000	0.00000000000000	0.00000000000000	15.24030600000000	0.00000000000000	0.00000000000000	0.00000000000000	0.00000000000000	
